<?xml version="1.0" encoding="UTF-8" ?>
<svg version="1.1" width="128" height="128" xmlns="http://www.w3.org/2000/svg" shape-rendering="crispEdges">
<rect x="0" y="0" width="128" height="12" fill="#084258" />
<rect x="0" y="12" width="35" height="1" fill="#084258" />
<rect x="35" y="12" width="93" height="1" fill="#100F17" />
<rect x="0" y="13" width="32" height="1" fill="#084258" />
<rect x="32" y="13" width="7" height="1" fill="#100F17" />
<rect x="39" y="13" width="89" height="3" fill="#28272D" />
<rect x="0" y="14" width="28" height="1" fill="#084258" />
<rect x="28" y="14" width="5" height="1" fill="#100F17" />
<rect x="33" y="14" width="6" height="5" fill="#28272D" />
<rect x="0" y="15" width="26" height="1" fill="#084258" />
<rect x="26" y="15" width="3" height="1" fill="#100F17" />
<rect x="29" y="15" width="4" height="4" fill="#28272D" />
<rect x="0" y="16" width="24" height="1" fill="#084258" />
<rect x="24" y="16" width="3" height="1" fill="#100F17" />
<rect x="27" y="16" width="2" height="3" fill="#28272D" />
<rect x="39" y="16" width="6" height="9" fill="#28272D" />
<rect x="45" y="16" width="10" height="1" fill="#100F17" />
<rect x="55" y="16" width="23" height="5" fill="#28272D" />
<rect x="78" y="16" width="50" height="95" fill="#0E0E0E" />
<rect x="0" y="17" width="22" height="1" fill="#084258" />
<rect x="22" y="17" width="3" height="1" fill="#100F17" />
<rect x="25" y="17" width="2" height="8" fill="#28272D" />
<rect x="45" y="17" width="1" height="3" fill="#100F17" />
<rect x="46" y="17" width="8" height="2" fill="#222126" />
<rect x="54" y="17" width="1" height="3" fill="#100F17" />
<rect x="0" y="18" width="21" height="2" fill="#084258" />
<rect x="21" y="18" width="2" height="2" fill="#100F17" />
<rect x="23" y="18" width="2" height="7" fill="#28272D" />
<rect x="27" y="19" width="1" height="6" fill="#28272D" />
<rect x="28" y="19" width="10" height="1" fill="#0E0E0E" />
<rect x="38" y="19" width="1" height="6" fill="#28272D" />
<rect x="46" y="19" width="8" height="1" fill="#100F17" />
<rect x="0" y="20" width="20" height="1" fill="#084258" />
<rect x="20" y="20" width="2" height="1" fill="#100F17" />
<rect x="22" y="20" width="1" height="5" fill="#28272D" />
<rect x="28" y="20" width="1" height="6" fill="#0E0E0E" />
<rect x="29" y="20" width="8" height="19" fill="#161616" />
<rect x="37" y="20" width="1" height="6" fill="#0E0E0E" />
<rect x="45" y="20" width="10" height="4" fill="#28272D" />
<rect x="0" y="21" width="19" height="1" fill="#084258" />
<rect x="19" y="21" width="2" height="1" fill="#100F17" />
<rect x="21" y="21" width="1" height="28" fill="#28272D" />
<rect x="55" y="21" width="3" height="1" fill="#28272D" />
<rect x="58" y="21" width="7" height="3" fill="#0E0E0E" />
<rect x="65" y="21" width="13" height="1" fill="#28272D" />
<rect x="0" y="22" width="18" height="106" fill="#084258" />
<rect x="18" y="22" width="2" height="1" fill="#100F17" />
<rect x="20" y="22" width="1" height="27" fill="#28272D" />
<rect x="55" y="22" width="1" height="1" fill="#28272D" />
<rect x="56" y="22" width="2" height="3" fill="#0E0E0E" />
<rect x="65" y="22" width="2" height="3" fill="#0E0E0E" />
<rect x="67" y="22" width="11" height="1" fill="#28272D" />
<rect x="18" y="23" width="1" height="72" fill="#100F17" />
<rect x="19" y="23" width="1" height="26" fill="#28272D" />
<rect x="55" y="23" width="1" height="3" fill="#0E0E0E" />
<rect x="67" y="23" width="1" height="3" fill="#0E0E0E" />
<rect x="68" y="23" width="10" height="1" fill="#28272D" />
<rect x="45" y="24" width="8" height="1" fill="#28272D" />
<rect x="53" y="24" width="2" height="3" fill="#0E0E0E" />
<rect x="58" y="24" width="7" height="1" fill="#222126" />
<rect x="68" y="24" width="2" height="3" fill="#0E0E0E" />
<rect x="70" y="24" width="8" height="1" fill="#28272D" />
<rect x="22" y="25" width="6" height="1" fill="#0E0E0E" />
<rect x="38" y="25" width="6" height="1" fill="#0E0E0E" />
<rect x="44" y="25" width="8" height="2" fill="#28272D" />
<rect x="52" y="25" width="1" height="5" fill="#0E0E0E" />
<rect x="56" y="25" width="4" height="1" fill="#222126" />
<rect x="60" y="25" width="4" height="2" fill="#0E0E0E" />
<rect x="64" y="25" width="3" height="1" fill="#222126" />
<rect x="70" y="25" width="1" height="4" fill="#0E0E0E" />
<rect x="71" y="25" width="7" height="1" fill="#28272D" />
<rect x="22" y="26" width="1" height="8" fill="#0E0E0E" />
<rect x="23" y="26" width="6" height="7" fill="#161616" />
<rect x="37" y="26" width="6" height="7" fill="#161616" />
<rect x="43" y="26" width="1" height="8" fill="#0E0E0E" />
<rect x="55" y="26" width="3" height="1" fill="#222126" />
<rect x="58" y="26" width="2" height="2" fill="#0E0E0E" />
<rect x="64" y="26" width="2" height="2" fill="#0E0E0E" />
<rect x="66" y="26" width="2" height="1" fill="#222126" />
<rect x="71" y="26" width="1" height="14" fill="#0E0E0E" />
<rect x="72" y="26" width="6" height="2" fill="#28272D" />
<rect x="44" y="27" width="7" height="1" fill="#28272D" />
<rect x="51" y="27" width="1" height="13" fill="#0E0E0E" />
<rect x="53" y="27" width="1" height="1" fill="#0E0E0E" />
<rect x="54" y="27" width="2" height="2" fill="#222126" />
<rect x="56" y="27" width="2" height="2" fill="#0E0E0E" />
<rect x="60" y="27" width="4" height="11" fill="#161616" />
<rect x="66" y="27" width="1" height="2" fill="#0E0E0E" />
<rect x="67" y="27" width="2" height="1" fill="#222126" />
<rect x="69" y="27" width="1" height="1" fill="#0E0E0E" />
<rect x="44" y="28" width="6" height="2" fill="#28272D" />
<rect x="50" y="28" width="1" height="10" fill="#0E0E0E" />
<rect x="53" y="28" width="1" height="10" fill="#222126" />
<rect x="58" y="28" width="2" height="10" fill="#161616" />
<rect x="64" y="28" width="1" height="10" fill="#161616" />
<rect x="65" y="28" width="1" height="1" fill="#0E0E0E" />
<rect x="67" y="28" width="1" height="4" fill="#0E0E0E" />
<rect x="68" y="28" width="2" height="1" fill="#222126" />
<rect x="72" y="28" width="1" height="10" fill="#0E0E0E" />
<rect x="73" y="28" width="5" height="2" fill="#28272D" />
<rect x="54" y="29" width="1" height="1" fill="#222126" />
<rect x="55" y="29" width="2" height="1" fill="#0E0E0E" />
<rect x="57" y="29" width="1" height="8" fill="#161616" />
<rect x="65" y="29" width="2" height="7" fill="#161616" />
<rect x="68" y="29" width="1" height="7" fill="#0E0E0E" />
<rect x="69" y="29" width="2" height="2" fill="#222126" />
<rect x="44" y="30" width="5" height="19" fill="#28272D" />
<rect x="49" y="30" width="1" height="6" fill="#0E0E0E" />
<rect x="52" y="30" width="1" height="6" fill="#222126" />
<rect x="54" y="30" width="2" height="6" fill="#0E0E0E" />
<rect x="56" y="30" width="1" height="6" fill="#161616" />
<rect x="73" y="30" width="1" height="6" fill="#0E0E0E" />
<rect x="74" y="30" width="4" height="21" fill="#28272D" />
<rect x="69" y="31" width="1" height="3" fill="#0E0E0E" />
<rect x="70" y="31" width="1" height="6" fill="#222126" />
<rect x="67" y="32" width="1" height="2" fill="#161616" />
<rect x="23" y="33" width="6" height="1" fill="#0E0E0E" />
<rect x="37" y="33" width="6" height="1" fill="#0E0E0E" />
<rect x="22" y="34" width="6" height="15" fill="#28272D" />
<rect x="28" y="34" width="1" height="6" fill="#0E0E0E" />
<rect x="37" y="34" width="1" height="6" fill="#0E0E0E" />
<rect x="38" y="34" width="6" height="16" fill="#28272D" />
<rect x="67" y="34" width="1" height="4" fill="#0E0E0E" />
<rect x="69" y="34" width="1" height="5" fill="#222126" />
<rect x="49" y="36" width="1" height="13" fill="#28272D" />
<rect x="52" y="36" width="1" height="5" fill="#0E0E0E" />
<rect x="54" y="36" width="1" height="3" fill="#222126" />
<rect x="55" y="36" width="2" height="1" fill="#0E0E0E" />
<rect x="65" y="36" width="1" height="1" fill="#161616" />
<rect x="66" y="36" width="1" height="3" fill="#0E0E0E" />
<rect x="68" y="36" width="1" height="3" fill="#222126" />
<rect x="73" y="36" width="1" height="14" fill="#28272D" />
<rect x="55" y="37" width="1" height="3" fill="#222126" />
<rect x="56" y="37" width="2" height="1" fill="#0E0E0E" />
<rect x="65" y="37" width="1" height="2" fill="#0E0E0E" />
<rect x="70" y="37" width="1" height="4" fill="#0E0E0E" />
<rect x="50" y="38" width="1" height="11" fill="#28272D" />
<rect x="53" y="38" width="1" height="4" fill="#0E0E0E" />
<rect x="56" y="38" width="1" height="3" fill="#222126" />
<rect x="57" y="38" width="4" height="1" fill="#0E0E0E" />
<rect x="61" y="38" width="2" height="1" fill="#161616" />
<rect x="63" y="38" width="2" height="2" fill="#0E0E0E" />
<rect x="67" y="38" width="1" height="2" fill="#222126" />
<rect x="72" y="38" width="1" height="11" fill="#28272D" />
<rect x="29" y="39" width="8" height="1" fill="#0E0E0E" />
<rect x="54" y="39" width="1" height="4" fill="#0E0E0E" />
<rect x="57" y="39" width="1" height="2" fill="#222126" />
<rect x="58" y="39" width="5" height="1" fill="#0E0E0E" />
<rect x="65" y="39" width="2" height="2" fill="#222126" />
<rect x="68" y="39" width="2" height="3" fill="#0E0E0E" />
<rect x="28" y="40" width="10" height="9" fill="#28272D" />
<rect x="51" y="40" width="1" height="9" fill="#28272D" />
<rect x="55" y="40" width="1" height="3" fill="#0E0E0E" />
<rect x="58" y="40" width="2" height="2" fill="#222126" />
<rect x="60" y="40" width="4" height="1" fill="#0E0E0E" />
<rect x="64" y="40" width="1" height="2" fill="#222126" />
<rect x="67" y="40" width="1" height="3" fill="#0E0E0E" />
<rect x="71" y="40" width="1" height="9" fill="#28272D" />
<rect x="52" y="41" width="1" height="8" fill="#28272D" />
<rect x="56" y="41" width="2" height="3" fill="#0E0E0E" />
<rect x="60" y="41" width="4" height="1" fill="#222126" />
<rect x="65" y="41" width="2" height="3" fill="#0E0E0E" />
<rect x="70" y="41" width="1" height="8" fill="#28272D" />
<rect x="53" y="42" width="1" height="7" fill="#28272D" />
<rect x="58" y="42" width="7" height="3" fill="#0E0E0E" />
<rect x="68" y="42" width="1" height="1" fill="#0E0E0E" />
<rect x="69" y="42" width="1" height="7" fill="#28272D" />
<rect x="54" y="43" width="2" height="6" fill="#28272D" />
<rect x="67" y="43" width="2" height="6" fill="#28272D" />
<rect x="56" y="44" width="2" height="5" fill="#28272D" />
<rect x="65" y="44" width="2" height="5" fill="#28272D" />
<rect x="58" y="45" width="7" height="4" fill="#28272D" />
<rect x="19" y="49" width="11" height="1" fill="#100F17" />
<rect x="30" y="49" width="8" height="1" fill="#28272D" />
<rect x="44" y="49" width="29" height="1" fill="#100F17" />
<rect x="19" y="50" width="10" height="45" fill="#28272D" />
<rect x="29" y="50" width="2" height="1" fill="#100F17" />
<rect x="31" y="50" width="12" height="1" fill="#28272D" />
<rect x="43" y="50" width="1" height="1" fill="#100F17" />
<rect x="44" y="50" width="29" height="28" fill="#28272D" />
<rect x="73" y="50" width="1" height="1" fill="#100F17" />
<rect x="29" y="51" width="1" height="60" fill="#28272D" />
<rect x="30" y="51" width="3" height="1" fill="#100F17" />
<rect x="33" y="51" width="9" height="31" fill="#28272D" />
<rect x="42" y="51" width="1" height="27" fill="#100F17" />
<rect x="43" y="51" width="1" height="27" fill="#28272D" />
<rect x="73" y="51" width="1" height="26" fill="#28272D" />
<rect x="74" y="51" width="1" height="27" fill="#100F17" />
<rect x="75" y="51" width="3" height="36" fill="#28272D" />
<rect x="30" y="52" width="2" height="60" fill="#28272D" />
<rect x="32" y="52" width="1" height="31" fill="#100F17" />
<rect x="73" y="77" width="1" height="2" fill="#100F17" />
<rect x="42" y="78" width="1" height="15" fill="#28272D" />
<rect x="43" y="78" width="1" height="1" fill="#100F17" />
<rect x="44" y="78" width="28" height="1" fill="#28272D" />
<rect x="72" y="78" width="1" height="2" fill="#100F17" />
<rect x="74" y="78" width="1" height="8" fill="#28272D" />
<rect x="43" y="79" width="1" height="15" fill="#28272D" />
<rect x="44" y="79" width="28" height="1" fill="#100F17" />
<rect x="73" y="79" width="1" height="6" fill="#28272D" />
<rect x="44" y="80" width="29" height="5" fill="#28272D" />
<rect x="33" y="82" width="1" height="2" fill="#100F17" />
<rect x="34" y="82" width="8" height="1" fill="#28272D" />
<rect x="32" y="83" width="1" height="30" fill="#28272D" />
<rect x="34" y="83" width="1" height="2" fill="#100F17" />
<rect x="35" y="83" width="7" height="1" fill="#28272D" />
<rect x="33" y="84" width="1" height="29" fill="#28272D" />
<rect x="35" y="84" width="1" height="3" fill="#100F17" />
<rect x="36" y="84" width="6" height="1" fill="#28272D" />
<rect x="34" y="85" width="1" height="28" fill="#28272D" />
<rect x="36" y="85" width="1" height="3" fill="#100F17" />
<rect x="37" y="85" width="5" height="2" fill="#28272D" />
<rect x="44" y="85" width="15" height="1" fill="#28272D" />
<rect x="59" y="85" width="15" height="1" fill="#100F17" />
<rect x="44" y="86" width="14" height="1" fill="#28272D" />
<rect x="58" y="86" width="2" height="1" fill="#100F17" />
<rect x="60" y="86" width="13" height="5" fill="#222126" />
<rect x="73" y="86" width="2" height="1" fill="#100F17" />
<rect x="35" y="87" width="1" height="27" fill="#28272D" />
<rect x="37" y="87" width="1" height="2" fill="#100F17" />
<rect x="38" y="87" width="4" height="1" fill="#28272D" />
<rect x="44" y="87" width="13" height="9" fill="#28272D" />
<rect x="57" y="87" width="2" height="1" fill="#100F17" />
<rect x="59" y="87" width="1" height="3" fill="#222126" />
<rect x="73" y="87" width="1" height="3" fill="#222126" />
<rect x="74" y="87" width="2" height="1" fill="#100F17" />
<rect x="76" y="87" width="2" height="28" fill="#28272D" />
<rect x="36" y="88" width="1" height="26" fill="#28272D" />
<rect x="38" y="88" width="1" height="3" fill="#100F17" />
<rect x="39" y="88" width="3" height="1" fill="#28272D" />
<rect x="57" y="88" width="1" height="1" fill="#100F17" />
<rect x="58" y="88" width="1" height="1" fill="#222126" />
<rect x="74" y="88" width="1" height="1" fill="#222126" />
<rect x="75" y="88" width="1" height="2" fill="#100F17" />
<rect x="37" y="89" width="1" height="26" fill="#28272D" />
<rect x="39" y="89" width="1" height="3" fill="#100F17" />
<rect x="40" y="89" width="2" height="2" fill="#28272D" />
<rect x="57" y="89" width="1" height="1" fill="#0E0E0E" />
<rect x="58" y="89" width="1" height="1" fill="#100F17" />
<rect x="74" y="89" width="1" height="2" fill="#100F17" />
<rect x="57" y="90" width="1" height="7" fill="#28272D" />
<rect x="58" y="90" width="1" height="1" fill="#0E0E0E" />
<rect x="59" y="90" width="1" height="1" fill="#100F17" />
<rect x="73" y="90" width="1" height="2" fill="#100F17" />
<rect x="75" y="90" width="1" height="7" fill="#28272D" />
<rect x="38" y="91" width="1" height="24" fill="#28272D" />
<rect x="40" y="91" width="1" height="2" fill="#100F17" />
<rect x="41" y="91" width="1" height="1" fill="#28272D" />
<rect x="58" y="91" width="1" height="6" fill="#28272D" />
<rect x="59" y="91" width="1" height="1" fill="#0E0E0E" />
<rect x="60" y="91" width="13" height="1" fill="#100F17" />
<rect x="74" y="91" width="1" height="6" fill="#28272D" />
<rect x="39" y="92" width="1" height="23" fill="#28272D" />
<rect x="41" y="92" width="1" height="2" fill="#100F17" />
<rect x="59" y="92" width="15" height="5" fill="#28272D" />
<rect x="40" y="93" width="1" height="22" fill="#28272D" />
<rect x="42" y="93" width="1" height="3" fill="#100F17" />
<rect x="41" y="94" width="1" height="21" fill="#28272D" />
<rect x="43" y="94" width="1" height="3" fill="#100F17" />
<rect x="18" y="95" width="1" height="33" fill="#084258" />
<rect x="19" y="95" width="1" height="4" fill="#100F17" />
<rect x="20" y="95" width="9" height="3" fill="#28272D" />
<rect x="42" y="96" width="1" height="19" fill="#28272D" />
<rect x="44" y="96" width="1" height="2" fill="#100F17" />
<rect x="45" y="96" width="12" height="1" fill="#28272D" />
<rect x="43" y="97" width="1" height="18" fill="#28272D" />
<rect x="45" y="97" width="1" height="3" fill="#100F17" />
<rect x="46" y="97" width="11" height="1" fill="#28272D" />
<rect x="57" y="97" width="5" height="2" fill="#100F17" />
<rect x="62" y="97" width="1" height="3" fill="#28272D" />
<rect x="63" y="97" width="3" height="2" fill="#100F17" />
<rect x="66" y="97" width="1" height="3" fill="#28272D" />
<rect x="67" y="97" width="4" height="2" fill="#100F17" />
<rect x="71" y="97" width="1" height="3" fill="#28272D" />
<rect x="72" y="97" width="4" height="2" fill="#100F17" />
<rect x="20" y="98" width="1" height="4" fill="#100F17" />
<rect x="21" y="98" width="8" height="3" fill="#28272D" />
<rect x="44" y="98" width="1" height="17" fill="#28272D" />
<rect x="46" y="98" width="1" height="3" fill="#100F17" />
<rect x="47" y="98" width="10" height="2" fill="#28272D" />
<rect x="19" y="99" width="1" height="29" fill="#084258" />
<rect x="57" y="99" width="5" height="1" fill="#28272D" />
<rect x="63" y="99" width="3" height="1" fill="#28272D" />
<rect x="67" y="99" width="4" height="1" fill="#28272D" />
<rect x="72" y="99" width="4" height="1" fill="#28272D" />
<rect x="45" y="100" width="1" height="15" fill="#28272D" />
<rect x="47" y="100" width="1" height="2" fill="#100F17" />
<rect x="48" y="100" width="12" height="1" fill="#28272D" />
<rect x="60" y="100" width="4" height="2" fill="#100F17" />
<rect x="64" y="100" width="1" height="3" fill="#28272D" />
<rect x="65" y="100" width="3" height="2" fill="#100F17" />
<rect x="68" y="100" width="2" height="3" fill="#28272D" />
<rect x="70" y="100" width="4" height="2" fill="#100F17" />
<rect x="74" y="100" width="2" height="15" fill="#28272D" />
<rect x="21" y="101" width="1" height="5" fill="#100F17" />
<rect x="22" y="101" width="7" height="4" fill="#28272D" />
<rect x="46" y="101" width="1" height="14" fill="#28272D" />
<rect x="48" y="101" width="1" height="3" fill="#100F17" />
<rect x="49" y="101" width="11" height="1" fill="#28272D" />
<rect x="20" y="102" width="1" height="26" fill="#084258" />
<rect x="47" y="102" width="1" height="13" fill="#28272D" />
<rect x="49" y="102" width="1" height="3" fill="#100F17" />
<rect x="50" y="102" width="14" height="1" fill="#28272D" />
<rect x="65" y="102" width="3" height="1" fill="#28272D" />
<rect x="70" y="102" width="4" height="1" fill="#28272D" />
<rect x="50" y="103" width="12" height="1" fill="#28272D" />
<rect x="62" y="103" width="4" height="2" fill="#100F17" />
<rect x="66" y="103" width="1" height="12" fill="#28272D" />
<rect x="67" y="103" width="5" height="2" fill="#100F17" />
<rect x="72" y="103" width="2" height="12" fill="#28272D" />
<rect x="48" y="104" width="1" height="11" fill="#28272D" />
<rect x="50" y="104" width="1" height="2" fill="#100F17" />
<rect x="51" y="104" width="11" height="1" fill="#28272D" />
<rect x="22" y="105" width="1" height="2" fill="#100F17" />
<rect x="23" y="105" width="6" height="1" fill="#28272D" />
<rect x="49" y="105" width="1" height="10" fill="#28272D" />
<rect x="51" y="105" width="1" height="2" fill="#100F17" />
<rect x="52" y="105" width="14" height="1" fill="#28272D" />
<rect x="67" y="105" width="5" height="10" fill="#28272D" />
<rect x="21" y="106" width="1" height="22" fill="#084258" />
<rect x="23" y="106" width="1" height="2" fill="#100F17" />
<rect x="24" y="106" width="5" height="1" fill="#28272D" />
<rect x="50" y="106" width="1" height="9" fill="#28272D" />
<rect x="52" y="106" width="1" height="2" fill="#100F17" />
<rect x="53" y="106" width="13" height="1" fill="#28272D" />
<rect x="22" y="107" width="1" height="21" fill="#084258" />
<rect x="24" y="107" width="1" height="2" fill="#100F17" />
<rect x="25" y="107" width="4" height="1" fill="#28272D" />
<rect x="51" y="107" width="1" height="8" fill="#28272D" />
<rect x="53" y="107" width="1" height="3" fill="#100F17" />
<rect x="54" y="107" width="12" height="1" fill="#28272D" />
<rect x="23" y="108" width="1" height="20" fill="#084258" />
<rect x="25" y="108" width="1" height="2" fill="#100F17" />
<rect x="26" y="108" width="3" height="1" fill="#28272D" />
<rect x="52" y="108" width="1" height="7" fill="#28272D" />
<rect x="54" y="108" width="1" height="3" fill="#100F17" />
<rect x="55" y="108" width="11" height="2" fill="#28272D" />
<rect x="24" y="109" width="1" height="19" fill="#084258" />
<rect x="26" y="109" width="1" height="2" fill="#100F17" />
<rect x="27" y="109" width="2" height="1" fill="#28272D" />
<rect x="25" y="110" width="1" height="18" fill="#084258" />
<rect x="27" y="110" width="1" height="2" fill="#100F17" />
<rect x="28" y="110" width="1" height="1" fill="#28272D" />
<rect x="53" y="110" width="1" height="5" fill="#28272D" />
<rect x="55" y="110" width="1" height="2" fill="#100F17" />
<rect x="56" y="110" width="10" height="1" fill="#28272D" />
<rect x="26" y="111" width="1" height="17" fill="#084258" />
<rect x="28" y="111" width="2" height="1" fill="#100F17" />
<rect x="54" y="111" width="1" height="4" fill="#28272D" />
<rect x="56" y="111" width="4" height="1" fill="#100F17" />
<rect x="60" y="111" width="6" height="1" fill="#28272D" />
<rect x="78" y="111" width="50" height="1" fill="#100F17" />
<rect x="27" y="112" width="2" height="16" fill="#084258" />
<rect x="29" y="112" width="3" height="1" fill="#100F17" />
<rect x="55" y="112" width="4" height="3" fill="#28272D" />
<rect x="59" y="112" width="3" height="1" fill="#100F17" />
<rect x="62" y="112" width="4" height="1" fill="#28272D" />
<rect x="78" y="112" width="50" height="3" fill="#28272D" />
<rect x="29" y="113" width="2" height="15" fill="#084258" />
<rect x="31" y="113" width="4" height="1" fill="#100F17" />
<rect x="59" y="113" width="2" height="2" fill="#28272D" />
<rect x="61" y="113" width="3" height="1" fill="#100F17" />
<rect x="64" y="113" width="2" height="1" fill="#28272D" />
<rect x="31" y="114" width="3" height="14" fill="#084258" />
<rect x="34" y="114" width="3" height="1" fill="#100F17" />
<rect x="61" y="114" width="2" height="1" fill="#28272D" />
<rect x="63" y="114" width="2" height="2" fill="#100F17" />
<rect x="65" y="114" width="1" height="1" fill="#28272D" />
<rect x="34" y="115" width="2" height="13" fill="#084258" />
<rect x="36" y="115" width="27" height="1" fill="#100F17" />
<rect x="65" y="115" width="63" height="1" fill="#100F17" />
<rect x="36" y="116" width="92" height="12" fill="#084258" />
</svg>